<?xml version="1.0" encoding="UTF-8"?>
<!-- 2015-11-07 19:23:01 Generated by QCAD SVG Exporter -->
<svg width="4in" height="4in" viewBox="0 -4 4 4" version="1.1" xmlns="http://www.w3.org/2000/svg" style="stroke-linecap:round;stroke-linejoin:round;fill:none">
    <g transform="scale(1,-1)">
        <!-- Circle -->
        <circle cx="2" cy="2" r="2" style="stroke:#000000;stroke-width:0.00984251968503937;"/>
        <!-- Circle -->
        <circle cx="2" cy="2" r="1.75" style="stroke:#000000;stroke-width:0.00984251968503937;"/>
        <!-- Spline -->
        <path d="M1.8237185039370076,2.6000891079597146 C1.7995649606299209,2.6055300528416043 1.7822145669291336,2.601451312684124 1.7630098425196847,2.5858213914242816 C1.7368484251968501,2.5645300528416044 1.7106870078740153,2.543234777251053 1.6845255905511807,2.521943438668376 C1.6679547244094484,2.508455249691998 1.660332677165354,2.4940615489045963 1.6584862204724407,2.472774147329793 C1.6577106299212594,2.4638528874872736 1.6569389763779525,2.4549276906368798 1.6561633858267713,2.4460064307943603 C1.6540059055118106,2.4211048559912105 1.6604783464566926,2.4043843835502656 1.678840551181102,2.38742769063688 C1.7433444881889761,2.3278725725266436 1.8078444881889761,2.2683135174085334 1.872344488188976,2.208758399298297 C1.8939704724409445,2.1887898953612894 1.9256358267716531,2.184152100085699 1.952080708661417,2.1970812339439667 C1.9891122047244092,2.215187533156565 2.026151574803149,2.2332938323691636 2.0631830708661414,2.2514040685896357 C2.0854665354330706,2.2622977693770374 2.0964468503937006,2.276360761503022 2.101620078740157,2.3006166670148325 C2.1127814960629916,2.352970997723494 2.1239429133858265,2.4053253284321556 2.135104330708661,2.4576796591408168 C2.1432539370078736,2.4959040685896356 2.119127952755905,2.5335694229203445 2.0810059055118106,2.5421521000856986 C1.9952421259842517,2.56146706071562 1.9094822834645666,2.580778084337667 1.8237185039370076,2.6000891079597146" style="stroke:#000000;stroke-width:0.003543307086614173;"/>
        <!-- Spline -->
        <path d="M2.324891732283464,1.3157898953612894 C2.31182874015748,1.328411942605384 2.2984468503937006,1.3343765095345177 2.28032874015748,1.335652100085699 C2.2549744094488187,1.3374395016605019 2.2296161417322833,1.339222966227431 2.204261811023622,1.3410103678022343 C2.1865374015748027,1.3422583992982973 2.172635826771653,1.3383804465423919 2.158116141732283,1.3281324150463287 C2.1569940944881885,1.3273410764636515 2.15586811023622,1.3265497378809745 2.1547460629921256,1.3257544622904232 C2.1411751968503934,1.316179659140817 2.1379311023622045,1.3065694229203446 2.1429232283464565,1.290726903235305 C2.1753917322834644,1.1877229662274311 2.2078602362204722,1.0847190292195572 2.240324803149606,0.9817111552038091 C2.2488523622047243,0.9546599741014468 2.272596456692913,0.9352269032353051 2.300805118110236,0.9322190292195571 C2.3112342519685036,0.9311048559912107 2.3216633858267715,0.9299946197707383 2.332092519685039,0.9288843835502658 C2.357517716535433,0.926171785125069 2.3824507874015746,0.9372741473297934 2.3974429133858264,0.9579867457549902 C2.4261948818897636,0.997695407172313 2.4549468503937004,1.03740800559751 2.483698818897637,1.0771206040227068 C2.5045216535433066,1.1058843835502659 2.5010216535433067,1.1455851709518408 2.4754862204724404,1.1702623363061713 C2.42528937007874,1.2187702103219193 2.375092519685039,1.2672820213455414 2.324891732283464,1.3157898953612894" style="stroke:#000000;stroke-width:0.003543307086614173;"/>
        <!-- Spline -->
        <path d="M3.2709783464566926,2.42392769063688 C3.256265748031496,2.4358174544164077 3.2419625984251965,2.4405300528416043 3.223064960629921,2.4397150922116833 C3.1766791338582676,2.437715092211683 3.130293307086614,2.435711155203809 3.08390748031496,2.433711155203809 C3.066588582677165,2.4329631237077463 3.0574271653543303,2.4151206040227065 3.058124015748031,2.3997820213455414 C3.061879921259842,2.3169355646526277 3.065631889763779,2.2340930449675884 3.06938779527559,2.151250525282549 C3.070596456692913,2.124612730006959 3.086561023622047,2.10086863551877 3.110777559055118,2.089699344180187 C3.175356299212598,2.059911942605384 3.2399350393700788,2.0301284780384545 3.304513779527559,2.0003410764636516 C3.3292814960629915,1.988919816621132 3.3583956692913386,1.9926206040227068 3.3795255905511805,2.0098686355187696 C3.402852362204724,2.028923753629006 3.4261791338582674,2.047978871739242 3.4495059055118107,2.0670339898494783 C3.4642421259842515,2.0790654859124706 3.471785433070866,2.0921599741014467 3.474812992125984,2.110939501660502 C3.4796633858267714,2.1410615489045965 3.4845137795275587,2.171183596148691 3.489364173228346,2.2013056433927853 C3.4934350393700786,2.2265615489045967 3.4836673228346453,2.2520615489045963 3.4637696850393698,2.2681402890620768 C3.399505905511811,2.3200694229203447 3.3352421259842515,2.371998556778612 3.2709783464566926,2.42392769063688" style="stroke:#000000;stroke-width:0.003543307086614173;"/>
        <!-- Spline -->
        <path d="M1.4969074803149602,1.8019119426053838 C1.488840551181102,1.8200300528416045 1.4777539370078738,1.83090800559751 1.4594822834645664,1.8386206040227067 C1.4381830708661414,1.8476166670148326 1.4168799212598422,1.8566087929990847 1.395576771653543,1.8656048559912106 C1.3802578740157476,1.8720733599282184 1.3689153543307082,1.870951312684124 1.3551633858267713,1.8615969819754625 C1.354604330708661,1.861215092211683 1.3540452755905508,1.8608371394557777 1.3534862204724405,1.8604552496919982 C1.3392814960629917,1.8507938323691633 1.3308484251968502,1.839490682762864 1.3256358267716533,1.8231206040227068 C1.2844311023622044,1.6937820213455415 1.2432263779527557,1.564439501660502 1.2020255905511807,1.4351009189833366 C1.192860236220472,1.4063332024479034 1.2027972440944878,1.3749080055975098 1.226836614173228,1.3566402890620768 C1.244537401574803,1.343191470164439 1.2622381889763776,1.3297426512668014 1.2799350393700784,1.3162898953612894 C1.2914468503937004,1.3075418638652265 1.303072834645669,1.3031087929990846 1.3174901574803146,1.3019709977234941 C1.3224389763779525,1.3015812339439665 1.327391732283464,1.301191470164439 1.332344488188976,1.3008017063849113 C1.3544074803149604,1.2990576118967225 1.3676437007874012,1.305459186699872 1.3799822834645665,1.3238371394557777 C1.4387460629921258,1.4113607615030217 1.4975137795275586,1.4988883205581398 1.5562775590551179,1.586415879613258 C1.5699586614173224,1.6067938323691635 1.5722066929133856,1.6327741473297934 1.5622224409448817,1.655195407172313 C1.5404507874015745,1.7041009189833367 1.5186791338582672,1.7530064307943602 1.4969074803149602,1.8019119426053838" style="stroke:#000000;stroke-width:0.003543307086614173;"/>
        <!-- Spline -->
        <path d="M2.8391633858267715,1.7865615489045965 C2.86178937007874,1.7998371394557775 2.8716830708661414,1.81540800559751 2.874096456692913,1.8415300528416043 C2.876501968503937,1.8675812339439666 2.87890748031496,1.8936363520542028 2.881312992125984,1.919691470164439 C2.8842460629921254,1.9514946197707381 2.8656870078740155,1.9813765095345177 2.835875984251968,1.9928371394557776 C2.8002381889763774,2.0065339898494785 2.764604330708661,2.020234777251053 2.7289665354330706,2.033935564652628 C2.6992263779527557,2.045372572526644 2.665505905511811,2.0356954071723132 2.6463523622047243,2.010230840243179 C2.6029507874015745,1.9525339898494785 2.559553149606299,1.8948332024479035 2.5161515748031493,1.8371284780384547 C2.4949625984251966,1.808955249691998 2.497525590551181,1.7695300528416045 2.5221870078740154,1.7443410764636516 C2.5389862204724407,1.727175722132943 2.55578937007874,1.7100143048101084 2.572588582677165,1.6928489504793995 C2.5955059055118106,1.669439501660502 2.6314232283464563,1.6646442260699508 2.6596791338582673,1.6812269032353053 C2.7195059055118107,1.7163371394557776 2.779336614173228,1.751451312684124 2.8391633858267715,1.7865615489045965" style="stroke:#000000;stroke-width:0.003543307086614173;"/>
        <!-- Spline -->
        <path d="M1.9261751968503933,3.1640418638652266 C1.91182874015748,3.153856824495148 1.903572834645669,3.142140289062077 1.898805118110236,3.125207218195935 C1.892836614173228,3.1040064307943602 1.8868681102362201,3.0828056433927853 1.8808996062992123,3.0616048559912103 C1.8713877952755902,3.0278253284321552 1.8956791338582675,2.9963410764636516 1.9277696850393697,2.988211155203809 C1.9932893700787397,2.971612730006959 2.058805118110236,2.9550182418179824 2.124320866141732,2.938415879613258 C2.1439507874015744,2.933443438668376 2.159549212598425,2.9355576118967224 2.177143700787401,2.9455812339439666 C2.23788779527559,2.980171785125069 2.2986318897637794,3.0147623363061715 2.359375984251968,3.0493568244951477 C2.370627952755905,3.055762336306171 2.3717775590551176,3.0635379268573524 2.36938779527559,3.075246588274675 C2.36588779527559,3.09240800559751 2.3623877952755903,3.1095694229203446 2.3588877952755904,3.126726903235305 C2.355364173228346,3.1440182418179825 2.3479586614173225,3.1563253284321555 2.3343366141732282,3.1675458008731003 C2.2861515748031493,3.207226903235305 2.2379625984251965,3.24690800559751 2.1897736220472437,3.2865891079597143 C2.1649035433070862,3.3070694229203443 2.12938779527559,3.3083410764636514 2.103120078740157,3.289687533156565 C2.044139763779527,3.2478056433927858 1.9851555118110233,3.2059237536290057 1.9261751968503933,3.1640418638652266" style="stroke:#000000;stroke-width:0.003543307086614173;"/>
        <!-- Spline -->
        <path d="M1.3103681102362201,2.2441678481171947 C1.3336673228346454,2.232754462290423 1.36132874015748,2.23488832055814 1.382604330708661,2.2497426512668013 C1.45180905511811,2.2980733599282184 1.5210177165354328,2.346404068589636 1.5902224409448815,2.3947387142589274 C1.6097027559055115,2.4083371394557775 1.6183996062992123,2.423396194573888 1.6204507874015746,2.4470654859124705 C1.6211437007874012,2.4550300528416042 1.621832677165354,2.4629946197707384 1.6225255905511808,2.470959186699872 C1.624627952755905,2.495226903235305 1.6184114173228343,2.5117465882746752 1.600832677165354,2.528608792999085 C1.5829035433070864,2.5458056433927854 1.5649704724409446,2.5630024937864864 1.5470413385826767,2.580199344180187 C1.5357736220472438,2.5910064307943603 1.5239665354330705,2.596841076463652 1.5085374015748028,2.599222966227431 C1.4180059055118108,2.613191470164439 1.3274704724409445,2.627163911109321 1.2369350393700784,2.6411363520542026 C1.2105570866141728,2.645207218195935 1.1929114173228341,2.6392111552038093 1.1744704724409445,2.619911942605384 C1.168120078740157,2.613262336306171 1.1617696850393697,2.6066127300069586 1.1554153543307084,2.599963123707746 C1.1399625984251966,2.5837898953612894 1.1342736220472438,2.5680261158337303 1.135832677165354,2.545711155203809 C1.140084645669291,2.4848174544164077 1.144336614173228,2.42392769063688 1.148588582677165,2.3630379268573525 C1.150364173228346,2.3376521000856987 1.1655216535433066,2.3151363520542025 1.1883681102362202,2.303943438668376 C1.2290334645669287,2.284018241817982 1.2696988188976375,2.2640930449675887 1.3103681102362201,2.2441678481171947" style="stroke:#000000;stroke-width:0.003543307086614173;"/>
        <!-- Spline -->
        <path d="M3.1387421259842516,1.4889670607156202 C3.1086909448818894,1.5080379268573525 3.0691791338582672,1.5020418638652264 3.0461397637795273,1.474911942605384 C3.027005905511811,1.4523843835502657 3.0078720472440943,1.4298528874872736 2.9887381889763773,1.4073213914242815 C2.972411417322834,1.3881009189833367 2.968041338582677,1.3706166670148328 2.9734035433070862,1.3459749347313683 C2.9875925196850392,1.2807583992982972 3.001781496062992,1.2155458008731004 3.0159704724409444,1.1503292654400297 C3.0226791338582673,1.1194906827628643 3.0534980314960625,1.1002505252825492 3.0841515748031494,1.1077702103219194 C3.0989114173228343,1.1113922575660138 3.113671259842519,1.1150103678022343 3.1284350393700784,1.1186324150463287 C3.144836614173228,1.1226560370935728 3.156580708661417,1.1301521000856987 3.167135826771653,1.1433410764636516 C3.2085177165354324,1.1950379268573523 3.2498996062992123,1.2467387142589272 3.2912814960629917,1.298439501660502 C3.317832677165354,1.3316087929990847 3.3096870078740155,1.380490682762864 3.27380905511811,1.4032583992982972 C3.22878937007874,1.4318292654400295 3.1837657480314956,1.460396194573888 3.1387421259842516,1.4889670607156202" style="stroke:#000000;stroke-width:0.003543307086614173;"/>
        <!-- Spline -->
        <path d="M2.6229547244094484,2.7136166670148327 C2.6032618110236214,2.705226903235305 2.5919468503937004,2.693482808747116 2.5842933070866136,2.673490682762864 C2.5736082677165353,2.6455851709518408 2.5629232283464565,2.617675722132943 2.5522381889763777,2.589766273314045 C2.544332677165354,2.5691127300069585 2.545108267716535,2.5524867457549902 2.5549035433070864,2.532659974101447 C2.5684389763779523,2.5052662733140454 2.5819704724409447,2.477876509534518 2.5955059055118106,2.4504867457549904 C2.6083129921259838,2.4245576118967227 2.6355098425196846,2.408931627644754 2.6643641732283463,2.410915879613258 C2.782352362204724,2.4190339898494786 2.900344488188976,2.427152100085699 3.018336614173228,2.4352702103219195 C3.0341633858267714,2.4363607615030216 3.044950787401574,2.4513332024479038 3.041891732283464,2.4666993441801868 C3.0317499999999997,2.517644226069951 3.021612204724409,2.568585170951841 3.0114744094488186,2.61952611583373 C3.0082106299212596,2.63592769063688 3.001320866141732,2.647923753629006 2.988801181102362,2.6590103678022343 C2.946564960629921,2.696411942605384 2.9043287401574798,2.7338174544164073 2.862092519685039,2.7712190292195573 C2.8414665354330704,2.789482808747116 2.8121712598425193,2.794238714258927 2.78682874015748,2.783439501660502 C2.7322027559055115,2.7601678481171947 2.677580708661417,2.736892257566014 2.6229547244094484,2.7136166670148327" style="stroke:#000000;stroke-width:0.003543307086614173;"/>
        <!-- Spline -->
        <path d="M1.8944271653543303,1.4009867457549903 C1.900053149606299,1.3868450134715256 1.9081555118110232,1.3767741473297934 1.9207657480314957,1.3682544622904231 C1.9316673228346453,1.3608883205581397 1.9425688976377948,1.3535221788258562 1.9534704724409446,1.3461521000856989 C1.9666988188976375,1.3372150922116832 1.9795531496062988,1.333482808747116 1.9955098425196847,1.333951312684124 C2.0262578740157475,1.3348568244951475 2.0570019685039367,1.3357583992982973 2.087746062992126,1.3366599741014469 C2.102596456692913,1.3370969819754626 2.114643700787401,1.3411166670148327 2.126781496062992,1.349679659140817 C2.1292460629921255,1.351419816621132 2.1317145669291335,1.3531599741014468 2.134179133858267,1.3549001315817617 C2.1502499999999998,1.3662426512668011 2.1574468503937005,1.3787623363061714 2.159151574803149,1.3983607615030218 C2.1676870078740156,1.4964631237077461 2.1762185039370077,1.5945654859124705 2.1847578740157476,1.6926678481171948 C2.187616141732283,1.7255418638652265 2.1675570866141727,1.7560891079597145 2.1362499999999995,1.7665300528416044 C2.106332677165354,1.7765064307943603 2.076419291338582,1.7864828087471163 2.0465019685039367,1.796459186699872 C2.0139586614173224,1.8073135174085335 1.978297244094488,1.79346706071562 1.961604330708661,1.7634946197707382 C1.9259940944881886,1.6995576118967224 1.8903838582677162,1.6356166670148327 1.8547696850393698,1.571675722132943 C1.8430137795275587,1.5505654859124705 1.8418799212598422,1.5330339898494785 1.850812992125984,1.5105851709518405 C1.8653484251968502,1.4740536748888484 1.8798877952755901,1.4375182418179824 1.8944271653543303,1.4009867457549903" style="stroke:#000000;stroke-width:0.003543307086614173;"/>
        <!-- Spline -->
        <path d="M1.9336279527559053,1.2768922575660138 C1.9406476377952753,1.2953607615030216 1.934041338582677,1.316230840243179 1.9176712598425194,1.3272938323691634 C1.9169232283464563,1.3277977693770375 1.9161751968503933,1.3283056433927856 1.9154271653543304,1.3288095804006597 C1.8940019685039367,1.3432898953612895 1.875856299212598,1.3455812339439666 1.8514980314960627,1.3368883205581397 C1.7586555118110234,1.3037505252825492 1.6658129921259839,1.2706166670148327 1.5729704724409446,1.237474934731368 C1.5322460629921255,1.2229395016605018 1.5137145669291336,1.1758056433927855 1.5336279527559051,1.137423753629006 C1.5502066929133855,1.1054828087471162 1.5667814960629918,1.0735379268573524 1.583360236220472,1.0415969819754627 C1.5965610236220469,1.0161560370935727 1.6237027559055115,1.0010851709518405 1.6522775590551178,1.0033332024479036 C1.6982145669291335,1.0069473756762501 1.7441476377952752,1.0105615489045965 1.790080708661417,1.014175722132943 C1.817580708661417,1.0163410764636516 1.8413720472440942,1.0341639111093208 1.8511751968503933,1.0599513126841242 C1.8786594488188972,1.1322662733140454 1.9061437007874011,1.2045772969360926 1.9336279527559053,1.2768922575660138" style="stroke:#000000;stroke-width:0.003543307086614173;"/>
        <!-- Spline -->
        <path d="M0.7926555118110232,1.098439501660502 C0.7798720472440941,1.082230840243179 0.7794547244094485,1.0594906827628643 0.7916318897637793,1.0428253284321554 C0.7949783464566924,1.0382465882746752 0.798324803149606,1.033667848117195 0.8016712598425193,1.0290891079597144 C0.8120334645669289,1.0149040685896358 0.8238484251968499,1.0068095804006596 0.8408169291338581,1.0022662733140453 C0.9191122047244091,0.9812977693770375 0.9974074803149604,0.9603292654400295 1.0756988188976375,0.9393646985108957 C1.1114468503937005,0.9297898953612893 1.148580708661417,0.9491402890620768 1.1612106299212595,0.983923753629006 C1.191076771653543,1.066156037093573 1.2209429133858265,1.1483883205581398 1.25080905511811,1.2306206040227066 C1.2614744094488186,1.2599867457549903 1.2517933070866136,1.2928765095345178 1.2269153543307083,1.3117780843376674 C1.2097696850393698,1.3248095804006594 1.1926240157480312,1.3378371394557775 1.1754783464566927,1.3508686355187698 C1.1642539370078737,1.359396194573888 1.1528799212598422,1.3638174544164077 1.138844488188976,1.3651087929990848 C1.1094822834645666,1.3678095804006594 1.0801240157480312,1.3705103678022343 1.0507618110236217,1.373211155203809 C1.023025590551181,1.3757583992982974 1.0054665354330705,1.368219029219557 0.9882185039370075,1.3463489504793995 C0.9230295275590548,1.263715092211683 0.857844488188976,1.1810772969360925 0.7926555118110232,1.098439501660502" style="stroke:#000000;stroke-width:0.003543307086614173;"/>
        <!-- Spline -->
        <path d="M0.6473799212598423,1.8790379268573525 C0.6099625984251966,1.888687533156565 0.5716633858267715,1.8667898953612894 0.5609980314960628,1.8296481630778247 C0.5554822834645665,1.810451312684124 0.5499704724409444,1.7912505252825492 0.5444547244094486,1.7720536748888485 C0.5393917322834643,1.754419816621132 0.5404586614173226,1.7397111552038091 0.5480098425196847,1.7229906827628643 C0.5653917322834643,1.6845103678022342 0.5827736220472439,1.6460300528416043 0.6001594488188973,1.6075497378809744 C0.6104744094488186,1.5847111552038091 0.6320177165354328,1.568959186699872 0.6569114173228345,1.5660536748888485 C0.7068996062992123,1.560226903235305 0.7568877952755904,1.5543961945738878 0.8068799212598421,1.5485694229203446 C0.8460885826771649,1.5439946197707382 0.881561023622047,1.5721363520542027 0.8860255905511807,1.6113607615030217 C0.8912854330708659,1.6575654859124704 0.8965452755905507,1.7037662733140453 0.9018011811023618,1.749970997723494 C0.90582874015748,1.7853253284321555 0.8831870078740154,1.8182387142589271 0.8487303149606296,1.8271206040227068 C0.7816122047244092,1.84442769063688 0.7144940944881886,1.861734777251053 0.6473799212598423,1.8790379268573525" style="stroke:#000000;stroke-width:0.003543307086614173;"/>
        <!-- Spline -->
        <path d="M2.141045275590551,2.2203725725266437 C2.119053149606299,2.2305812339439663 2.1014507874015744,2.2304080055975097 2.0796712598425193,2.219758399298297 C2.038620078740157,2.199687533156565 1.997572834645669,2.179616667014833 1.9565216535433068,2.1595458008731003 C1.9314271653543305,2.1472780843376675 1.920344488188976,2.131671785125069 1.9170216535433067,2.103939501660502 C1.9134507874015745,2.0741284780384546 1.9098799212598423,2.0443213914242815 1.9063090551181099,2.0145103678022345 C1.9041279527559052,1.9963371394557776 1.9075177165354327,1.9820064307943603 1.917600393700787,1.9667308402431791 C1.9383681102362202,1.9352623363061712 1.9591397637795271,1.9037898953612893 1.9799074803149603,1.8723213914242816 C1.9893799212598422,1.8579709977234942 2.000572834645669,1.8493804465423918 2.016883858267716,1.843939501660502 C2.0720137795275586,1.8255536748888486 2.1271437007874012,1.8071678481171949 2.182273622047244,1.7887820213455414 C2.2002303149606295,1.7827938323691634 2.2152775590551177,1.7833922575660137 2.2326988188976373,1.7907820213455414 C2.2452736220472436,1.7961127300069588 2.257844488188976,1.801443438668376 2.270415354330708,1.8067741473297934 C2.2984429133858266,1.8186639111093208 2.315840551181102,1.8470221788258563 2.3137342519685036,1.8773883205581399 C2.308431102362204,1.9538922575660138 2.303127952755905,2.0303961945738878 2.29782874015748,2.106900131581762 C2.296029527559055,2.1328292654400296 2.2802736220472437,2.155730840243179 2.2566988188976373,2.166675722132943 C2.2181476377952754,2.1845733599282187 2.179596456692913,2.202474934731368 2.141045275590551,2.2203725725266437" style="stroke:#000000;stroke-width:0.003543307086614173;"/>
        <!-- Spline -->
        <path d="M1.8819586614173225,2.1111442260699507 C1.885064960629921,2.1370694229203444 1.8787027559055114,2.1543332024479036 1.8595177165354326,2.1720458008731005 C1.798096456692913,2.2287662733140454 1.7366673228346454,2.2854828087471164 1.6752421259842516,2.342199344180187 C1.650616141732283,2.364939501660502 1.6134783464566926,2.367470997723494 1.5859980314960627,2.348278084337667 C1.5244940944881886,2.3053253284321555 1.4629940944881887,2.262376509534518 1.4014901574803147,2.2194276906368797 C1.380875984251968,2.2050300528416042 1.369360236220472,2.1808410764636514 1.3711830708661414,2.155762336306171 C1.3761594488188975,2.0873568244951475 1.3811318897637792,2.018951312684124 1.386104330708661,1.9505497378809744 C1.3880492125984247,1.9238135174085336 1.4048129921259838,1.90042769063688 1.4295059055118107,1.8899985567786122 C1.4441003937007872,1.8838371394557776 1.4586909448818894,1.877675722132943 1.4732814960629916,1.8715143048101082 C1.4916003937007871,1.8637820213455414 1.5071515748031494,1.863431627644754 1.525801181102362,1.8703332024479036 C1.626340551181102,1.9075536748888484 1.7268799212598422,1.9447741473297933 1.8274153543307083,1.9819906827628642 C1.8525137795275588,1.9912859583534153 1.870301181102362,2.0138371394557777 1.8734822834645666,2.04040800559751 C1.8763090551181099,2.06398674575499 1.8791318897637792,2.0875654859124704 1.8819586614173225,2.1111442260699507" style="stroke:#000000;stroke-width:0.003543307086614173;"/>
        <!-- Spline -->
        <path d="M2.4099665354330706,2.9580024937864864 C2.38976968503937,2.9906521000856987 2.3473562992125983,3.001459186699872 2.3139940944881885,2.982463123707746 C2.281568897637795,2.9639985567786122 2.249143700787401,2.945530052841604 2.2167185039370074,2.9270654859124705 C2.191100393700787,2.9124788717392422 2.177096456692913,2.8836402890620767 2.1814704724409446,2.8544867457549903 C2.191840551181102,2.7853489504793996 2.2022145669291335,2.7162111552038093 2.212588582677165,2.6470733599282186 C2.2176791338582675,2.613120604022707 2.2462342519685037,2.587612730006959 2.280541338582677,2.5863607615030215 C2.339879921259842,2.584199344180187 2.3992185039370075,2.5820339898494784 2.458557086614173,2.5798686355187694 C2.4890492125984247,2.578758399298297 2.516875984251968,2.597163911109321 2.527785433070866,2.625659974101447 C2.5347618110236216,2.6438804465423917 2.5417381889763777,2.6621048559912106 2.5487145669291333,2.6803292654400295 C2.5577460629921256,2.703923753629006 2.556049212598425,2.7218843835502655 2.5427578740157477,2.743372572526644 C2.498494094488189,2.814915879613258 2.4542303149606295,2.886459186699872 2.4099665354330706,2.9580024937864864" style="stroke:#000000;stroke-width:0.003543307086614173;"/>
        <!-- Spline -->
        <path d="M1.1797027559055113,2.883490682762864 C1.1801122047244093,2.906687533156565 1.1732618110236217,2.922400131581762 1.1559822834645666,2.9378804465423918 C1.1214901574803147,2.9687859583534153 1.0870019685039367,2.999691470164439 1.0525137795275588,3.0305930449675884 C1.0371791338582674,3.0443332024479037 1.0221909448818896,3.049675722132943 1.0016240157480312,3.048730840243179 C0.9961358267716534,3.048474934731368 0.9906476377952753,3.0482229662274314 0.9851594488188973,3.0479709977234943 C0.9727342519685036,3.047400131581762 0.9621397637795273,3.044175722132943 0.9514980314960626,3.0377347772510532 C0.9200452755905508,3.018695407172313 0.888592519685039,2.999656037093573 0.8571397637795273,2.9806166670148326 C0.8402775590551179,2.97040800559751 0.8308877952755902,2.9581127300069587 0.8254822834645668,2.9391560370935728 C0.8106948818897635,2.8873253284321554 0.7959074803149602,2.835490682762864 0.7811200787401571,2.783656037093573 C0.770592519685039,2.7467544622904234 0.7911397637795272,2.7081363520542028 0.8276279527559052,2.696250525282549 C0.907576771653543,2.670207218195935 0.9875255905511808,2.6441639111093207 1.0674704724409445,2.6181206040227067 C1.0935570866141728,2.6096245410305805 1.1222027559055114,2.6168371394557775 1.1411515748031493,2.6366717851250687 C1.146344488188976,2.6421087929990845 1.151541338582677,2.6475458008731003 1.1567342519685035,2.652982808747116 C1.1702736220472438,2.667152100085699 1.1761358267716533,2.68140800559751 1.1764822834645665,2.70100643079436 C1.177557086614173,2.7618332024479035 1.1786279527559052,2.822663911109321 1.1797027559055113,2.883490682762864" style="stroke:#000000;stroke-width:0.003543307086614173;"/>
        <!-- Spline -->
        <path d="M0.9869940944881885,1.9469828087471162 C0.9923956692913383,1.9135654859124704 1.0205374015748028,1.8885418638652265 1.054356299212598,1.8870851709518406 C1.1326437007874013,1.8837150922116832 1.2109271653543305,1.8803410764636517 1.2892145669291335,1.876970997723494 C1.3056515748031492,1.8762662733140454 1.318805118110236,1.8800064307943603 1.3324074803149604,1.8892583992982972 C1.333305118110236,1.8898686355187697 1.3342027559055114,1.8904788717392422 1.3351003937007873,1.8910891079597145 C1.3485531496062988,1.9002387142589272 1.353285433070866,1.9100261158337304 1.352104330708661,1.9262505252825493 C1.3466200787401572,2.001715092211683 1.3411318897637792,2.077183596148691 1.3356476377952753,2.1526521000856986 C1.333805118110236,2.177955249691998 1.3186673228346453,2.200380446542392 1.2958799212598422,2.2115458008731004 C1.2516594488188972,2.233211155203809 1.2074350393700783,2.2548804465423915 1.1632145669291336,2.2765458008731003 C1.142340551181102,2.286770210321919 1.1251909448818895,2.287219029219557 1.103812992125984,2.2780930449675885 C1.067812992125984,2.262722966227431 1.0318090551181098,2.2473568244951476 0.9958051181102359,2.2319867457549902 C0.9656555118110233,2.219116667014833 0.9481555118110232,2.1873528874872736 0.9533838582677161,2.154994619770738 C0.964588582677165,2.085652100085699 0.9757933070866138,2.0163174544164075 0.9869940944881885,1.9469828087471162" style="stroke:#000000;stroke-width:0.003543307086614173;"/>
        <!-- Spline -->
        <path d="M1.487049212598425,3.3503292654400294 C1.4723956692913382,3.32996706071562 1.4695137795275586,3.3034040685896358 1.4794625984251966,3.2803686355187693 C1.5028799212598423,3.226148163077825 1.5262972440944877,3.17192769063688 1.5497185039370076,3.117703281188061 C1.560072834645669,3.093726903235305 1.5826988188976374,3.0773292654400297 1.6087066929133855,3.07494737567625 C1.669557086614173,3.06936863551877 1.7304114173228342,3.0637977693770377 1.7912657480314957,3.058222966227431 C1.8204311023622044,3.0555536748888485 1.84734842519685,3.0740694229203447 1.8552854330708657,3.1022583992982975 C1.8584074803149604,3.1133410764636515 1.8615255905511807,3.124419816621132 1.8646476377952752,3.135502493786486 C1.86930905511811,3.1520615489045962 1.8684822834645667,3.166152100085699 1.8619192913385825,3.1820536748888486 C1.8301122047244092,3.259116667014833 1.7983051181102359,3.336179659140817 1.7664980314960625,3.413242651266801 C1.756312992125984,3.4379276906368794 1.7331948818897636,3.4548528874872737 1.706584645669291,3.4571127300069584 C1.6751988188976374,3.4597780843376675 1.64380905511811,3.4624395016605023 1.6124192913385824,3.4651048559912105 C1.5874153543307084,3.4672269032353054 1.5631358267716533,3.4560576118967226 1.5484783464566925,3.435691470164439 C1.5280019685039368,3.407238714258927 1.5075255905511806,3.3787820213455415 1.487049212598425,3.3503292654400294" style="stroke:#000000;stroke-width:0.003543307086614173;"/>
        <!-- Spline -->
        <path d="M1.598592519685039,3.0400497378809743 C1.5722736220472437,3.042459186699872 1.555104330708661,3.035494619770738 1.5379114173228343,3.015423753629006 C1.5314232283464564,3.0078528874872736 1.5249350393700785,3.0002820213455412 1.5184468503937003,2.992711155203809 C1.5029350393700784,2.9746048559912106 1.4982893700787399,2.9578056433927853 1.5022972440944877,2.9342977693770376 C1.5187696850393697,2.8377190292195573 1.5352381889763778,2.7411363520542027 1.5517106299212595,2.6445576118967224 C1.5544625984251965,2.62842769063688 1.560844488188976,2.6163883205581397 1.572651574803149,2.6050615489045965 C1.5830610236220468,2.5950812339439664 1.5934665354330706,2.5851009189833367 1.6038720472440942,2.5751206040227066 C1.627332677165354,2.5526206040227066 1.6638799212598423,2.551132415046329 1.689088582677165,2.5716481630778247 C1.71034842519685,2.588955249691998 1.7316122047244091,2.6062623363061714 1.7528759842519681,2.6235654859124704 C1.7646279527559052,2.6331324150463287 1.7717972440944878,2.6438410764636515 1.7761594488188974,2.6583528874872737 C1.8056358267716532,2.7563804465423916 1.835112204724409,2.85440800559751 1.864588582677165,2.9524316276447538 C1.8740255905511807,2.9838095804006595 1.853080708661417,3.016742651266801 1.820072834645669,3.0197662733140453 C1.7462460629921255,3.0265261158337307 1.6724192913385822,3.033289895361289 1.598592519685039,3.0400497378809743" style="stroke:#000000;stroke-width:0.003543307086614173;"/>
        <!-- Spline -->
        <path d="M2.6404822834645665,1.2115615489045966 C2.6289389763779525,1.1775576118967224 2.6444704724409447,1.1402702103219193 2.6767421259842514,1.1245182418179822 C2.750273622047244,1.0886245410305806 2.823805118110236,1.0527347772510531 2.897336614173228,1.0168450134715257 C2.9209507874015745,1.0053174544164074 2.9494311023622046,1.012459186699872 2.964812992125984,1.0337662733140451 C2.96884842519685,1.0393568244951479 2.972883858267716,1.0449473756762502 2.9769192913385822,1.0505379268573525 C2.990151574803149,1.0688646985108958 2.993596456692913,1.0853804465423917 2.98878937007874,1.107463123707746 C2.972820866141732,1.1808528874872737 2.956856299212598,1.254238714258927 2.9408877952755903,1.327624541030581 C2.935143700787401,1.3540261158337303 2.9149783464566923,1.374915879613258 2.888797244094488,1.3815930449675886 C2.851643700787401,1.3910576118967224 2.8144901574803147,1.4005300528416043 2.7773405511811022,1.4099985567786124 C2.7412421259842517,1.419199344180187 2.7041397637795273,1.3990772969360927 2.6921633858267713,1.3637977693770373 C2.6749350393700784,1.3130536748888484 2.6577106299212594,1.2623095804006594 2.6404822834645665,1.2115615489045966" style="stroke:#000000;stroke-width:0.003543307086614173;"/>
        <!-- Spline -->
        <path d="M3.32980905511811,1.9037347772510531 C3.32980905511811,1.9315694229203446 3.3136240157480312,1.9568607615030216 3.2883484251968502,1.9685182418179823 C3.223805118110236,1.9982820213455414 3.159265748031496,2.0280536748888482 3.0947224409448815,2.0578213914242816 C3.0709783464566924,2.068774147329793 3.043143700787401,2.065856824495148 3.0221830708661415,2.0502190292195572 C2.9973759842519683,2.031715092211683 2.972572834645669,2.013211155203809 2.947765748031496,1.994707218195935 C2.9296948818897635,1.9812269032353051 2.9214586614173226,1.9665339898494785 2.9193877952755902,1.9440851709518405 C2.916084645669291,1.9083371394557775 2.912785433070866,1.8725851709518406 2.9094822834645666,1.8368332024479035 C2.9071515748031493,1.8115772969360926 2.9136791338582673,1.794711155203809 2.9324035433070863,1.7776048559912105 C2.968647637795275,1.7444906827628641 3.0048956692913382,1.7113765095345177 3.041139763779527,1.6782623363061713 C3.06678937007874,1.6548292654400296 3.105588582677165,1.6532780843376673 3.133025590551181,1.6745891079597146 C3.1894271653543305,1.7184001315817619 3.2458287401574797,1.762211155203809 3.30223031496063,1.8060221788258564 C3.3219350393700786,1.8213292654400295 3.32980905511811,1.8374119426053839 3.32980905511811,1.8623646985108957 C3.32980905511811,1.8761521000856989 3.32980905511811,1.889943438668376 3.32980905511811,1.9037347772510531" style="stroke:#000000;stroke-width:0.003543307086614173;"/>
        <!-- Spline -->
        <path d="M2.6729389763779525,2.113376509534518 C2.681655511811023,2.096199344180187 2.6929704724409445,2.085994619770738 2.7109507874015746,2.0790812339439664 C2.762557086614173,2.0592387142589272 2.814163385826771,2.039400131581762 2.8657696850393695,2.0195576118967224 C2.8922106299212595,2.009392257566014 2.91132874015748,2.0120261158337303 2.934033464566929,2.028963123707746 C2.957844488188976,2.0467269032353053 2.9816515748031494,2.0644867457549902 3.0054625984251966,2.082250525282549 C3.0272421259842517,2.0984985567786123 3.035301181102362,2.1155221788258562 3.034072834645669,2.142663911109321 C3.0312893700787398,2.2040576118967223 3.028505905511811,2.26544737567625 3.0257224409448815,2.3268410764636513 C3.02390748031496,2.3668528874872736 2.9895137795275586,2.3975339898494785 2.9495570866141727,2.3947820213455415 C2.855092519685039,2.3882859583534155 2.760631889763779,2.381785958353415 2.6661712598425193,2.375285958353415 C2.6378877952755904,2.3733371394557774 2.613671259842519,2.3543095804006593 2.605092519685039,2.3272898953612895 C2.6028129921259837,2.320112730006959 2.600533464566929,2.312931627644754 2.5982539370078737,2.305754462290423 C2.5920177165354326,2.2861127300069586 2.593305118110236,2.2702465882746754 2.602635826771653,2.2518686355187696 C2.626068897637795,2.205707218195935 2.6495019685039365,2.1595418638652264 2.6729389763779525,2.113376509534518" style="stroke:#000000;stroke-width:0.003543307086614173;"/>
        <!-- Spline -->
        <path d="M2.1976633858267713,1.4294709977234943 C2.1951791338582676,1.400935564652628 2.216561023622047,1.3759040685896358 2.2451318897637793,1.3738922575660137 C2.2574547244094485,1.3730221788258563 2.2697775590551177,1.372156037093573 2.282100393700787,1.3712859583534154 C2.300659448818897,1.3699788717392423 2.3149429133858264,1.3741796591408169 2.329844488188976,1.3853213914242815 C2.4126909448818896,1.4472859583534152 2.495537401574803,1.5092505252825492 2.57838779527559,1.5712150922116832 C2.6012381889763776,1.5883056433927853 2.593336614173228,1.6206639111093208 2.5760098425196847,1.6383646985108957 C2.5377106299212597,1.6774867457549902 2.4994074803149604,1.7166166670148326 2.461108267716535,1.7557387142589271 C2.451167322834645,1.7658922575660139 2.4404822834645667,1.771939501660502 2.4266594488188975,1.775234777251053 C2.4045374015748027,1.7805024937864862 2.3824153543307083,1.7857741473297932 2.360297244094488,1.7910458008731005 C2.3444468503937004,1.7948174544164075 2.3309114173228345,1.793687533156565 2.3159114173228343,1.7873213914242816 C2.29892716535433,1.7801206040227067 2.2819429133858264,1.772919816621132 2.2649586614173227,1.765715092211683 C2.240655511811023,1.7554080055975099 2.224029527559055,1.7325221788258562 2.221742125984252,1.7062190292195571 C2.2137145669291334,1.6139670607156202 2.2056909448818893,1.521719029219557 2.1976633858267713,1.4294709977234943" style="stroke:#000000;stroke-width:0.003543307086614173;"/>
        <!-- Spline -->
        <path d="M2.2002657480314958,2.54236863551877 C2.191151574803149,2.5342820213455415 2.186037401574803,2.52550643079436 2.183498031496063,2.5135891079597146 C2.1697578740157475,2.4491481630778247 2.1560177165354326,2.3847072181959352 2.1422814960629917,2.3202662733140453 C2.135340551181102,2.287715092211683 2.15182874015748,2.254695407172313 2.1820098425196846,2.240679659140817 C2.2155374015748026,2.2251127300069586 2.249068897637795,2.2095458008731006 2.282596456692913,2.193978871739242 C2.303580708661417,2.1842387142589272 2.3206909448818895,2.1841206040227066 2.3418051181102357,2.1935812339439664 C2.4033602362204722,2.221152100085699 2.4649114173228344,2.248726903235305 2.5264625984251965,2.2763017063849116 C2.547167322834645,2.2855772969360926 2.5584271653543302,2.298191470164439 2.565293307086614,2.3198174544164076 C2.5695610236220467,2.3332662733140452 2.573832677165354,2.346711155203809 2.578100393700787,2.3601560370935726 C2.5842342519685038,2.379474934731368 2.5830452755905506,2.395179659140817 2.574064960629921,2.4133489504793997 C2.5591122047244093,2.4436166670148327 2.544159448818897,2.473880446542392 2.5292066929133856,2.504144226069951 C2.517596456692913,2.5276442260699508 2.494037401574803,2.5428804465423918 2.467844488188976,2.5438371394557775 C2.388116141732283,2.546742651266801 2.30838779527559,2.549652100085699 2.228659448818897,2.5525576118967224 C2.2172185039370076,2.552974934731368 2.2088287401574798,2.5499631237077462 2.2002657480314958,2.54236863551877" style="stroke:#000000;stroke-width:0.003543307086614173;"/>
        <!-- Spline -->
        <path d="M1.3807460629921255,1.2535733599282186 C1.370856299212598,1.2595615489045966 1.3609232283464565,1.2627623363061713 1.3493956692913383,1.263671785125069 C1.3427775590551176,1.2641954071723132 1.3361555118110233,1.2647190292195571 1.329537401574803,1.2652387142589272 C1.313336614173228,1.2665182418179823 1.2982775590551179,1.2568253284321556 1.2927303149606297,1.2415497378809746 C1.2542775590551178,1.1356757221329428 1.215824803149606,1.0298017063849114 1.177372047244094,0.9239276906368799 C1.1664862204724407,0.8939513126841241 1.1804114173228344,0.8606245410305806 1.2094114173228343,0.8473332024479037 C1.2552499999999998,0.8263292654400296 1.301084645669291,0.8053213914242816 1.3469192913385823,0.7843174544164075 C1.3684507874015743,0.7744513126841241 1.3858090551181097,0.7745615489045965 1.4072066929133855,0.7847111552038091 C1.437596456692913,0.7991166670148329 1.4679822834645666,0.8135261158337304 1.4983720472440942,0.8279316276447539 C1.517080708661417,0.8368017063849114 1.527824803149606,0.8486166670148327 1.5348838582677162,0.8680851709518407 C1.54480905511811,0.8954670607156201 1.5547342519685037,0.9228528874872737 1.5646594488188974,0.9502347772510533 C1.5722185039370076,0.9710851709518407 1.5711279527559052,0.9877229662274312 1.5609114173228344,1.0074080055975099 C1.5294153543307085,1.0681009189833366 1.4979232283464563,1.1287898953612894 1.4664271653543304,1.1894788717392422 C1.4600728346456688,1.201726903235305 1.45186811023622,1.210490682762864 1.4400688976377949,1.2176402890620768 C1.420293307086614,1.2296166670148327 1.400521653543307,1.2415930449675887 1.3807460629921255,1.2535733599282186" style="stroke:#000000;stroke-width:0.003543307086614173;"/>
        <!-- Spline -->
        <path d="M1.5942539370078737,1.857640289062077 C1.5556122047244092,1.8433332024479037 1.537088582677165,1.7993646985108958 1.55384842519685,1.761719029219557 C1.568879921259842,1.727955249691998 1.5839114173228344,1.694187533156565 1.5989429133858266,1.660419816621132 C1.6079744094488186,1.6401363520542027 1.620312992125984,1.6289080055975098 1.6413602362204722,1.6218213914242816 C1.6789035433070862,1.6091835961486909 1.7164468503937005,1.5965458008731004 1.7539901574803147,1.5839080055975099 C1.786576771653543,1.572939501660502 1.82234842519685,1.5867702103219194 1.839076771653543,1.6168095804006595 C1.8727421259842516,1.6772505252825494 1.9064035433070863,1.737695407172313 1.940064960629921,1.7981363520542026 C1.9530216535433067,1.8213922575660138 1.9519468503937005,1.84992769063688 1.9372854330708658,1.8721481630778247 C1.927797244094488,1.8865221788258564 1.91830905511811,1.9008961945738878 1.908820866141732,1.9152741473297934 C1.8905531496062988,1.942955249691998 1.855612204724409,1.9543922575660138 1.8245098425196846,1.9428804465423917 C1.7477578740157478,1.91446706071562 1.6710059055118107,1.8860536748888483 1.5942539370078737,1.857640289062077" style="stroke:#000000;stroke-width:0.003543307086614173;"/>
        <!-- Spline -->
        <path d="M2.17540748031496,0.8983174544164074 C2.2017381889763774,0.91594737567625 2.2132893700787397,0.9488292654400294 2.2037618110236217,0.9790497378809744 C2.1753011811023617,1.0693489504793996 2.146840551181102,1.1596481630778248 2.1183759842519683,1.2499513126841242 C2.108785433070866,1.28038832055814 2.0801476377952755,1.3007505252825493 2.0482460629921255,1.2998135174085335 C2.041293307086614,1.2996087929990847 2.034344488188976,1.2994040685896358 2.0273917322834643,1.299199344180187 C1.9985492125984248,1.2983568244951478 1.9730531496062989,1.2802111552038091 1.9628011811023618,1.2532387142589272 C1.9362145669291335,1.1832898953612894 1.9096279527559052,1.1133450134715255 1.8830413385826767,1.0433961945738879 C1.8738602362204722,1.0192387142589272 1.8784625984251966,0.9920024937864862 1.895072834645669,0.972199344180187 C1.9281948818897634,0.9327190292195571 1.961312992125984,0.8932387142589273 1.9944311023622043,0.8537583992982973 C2.017840551181102,0.8258568244951476 2.0585098425196846,0.8200654859124705 2.0887736220472437,0.8403253284321555 C2.1176515748031495,0.8596560370935729 2.146529527559055,0.87898674575499 2.17540748031496,0.8983174544164074" style="stroke:#000000;stroke-width:0.003543307086614173;"/>
        <!-- Spline -->
        <path d="M0.9653799212598422,1.8343804465423919 C0.9512539370078736,1.821683596148691 0.944340551181102,1.8082662733140453 0.9421909448818895,1.7893961945738879 C0.9334074803149603,1.712226903235305 0.9246240157480312,1.6350615489045965 0.9158405511811021,1.5578922575660137 C0.9132933070866138,1.5355143048101083 0.918352362204724,1.5194591866998721 0.9332696850393698,1.5025812339439666 C0.9535570866141729,1.4796245410305806 0.9738444881889761,1.456671785125069 0.9941318897637792,1.433719029219557 C1.007324803149606,1.4187938323691633 1.0212145669291335,1.4117465882746751 1.041053149606299,1.409923753629006 C1.0594271653543303,1.408234777251053 1.0778011811023618,1.4065458008731004 1.0961791338582674,1.4048528874872737 C1.1295255905511807,1.4017859583534154 1.1605216535433067,1.4223332024479036 1.1706870078740155,1.4542426512668012 C1.202320866141732,1.5535458008731005 1.2339547244094484,1.6528450134715256 1.265588582677165,1.7521481630778248 C1.279860236220472,1.796943438668376 1.2476515748031494,1.8430576118967226 1.2006830708661416,1.8450812339439666 C1.1389901574803147,1.8477387142589272 1.077297244094488,1.8503922575660139 1.015604330708661,1.8530497378809745 C0.9957736220472437,1.8539040685896357 0.981324803149606,1.848719029219557 0.9665649606299209,1.83544737567625 C0.9661673228346452,1.8350930449675886 0.9657736220472437,1.8347347772510532 0.9653799212598422,1.8343804465423919" style="stroke:#000000;stroke-width:0.003543307086614173;"/>
        <!-- Spline -->
        <path d="M0.694340551181102,2.5345576118967226 C0.6901633858267715,2.5142426512668012 0.6931515748031494,2.4985379268573524 0.7044940944881886,2.481175722132943 C0.748344488188976,2.4140458008731005 0.7921988188976374,2.346915879613258 0.8360531496062988,2.2797859583534152 C0.8472499999999996,2.2626442260699506 0.8602814960629919,2.2536206040227067 0.8802657480314957,2.249167848117195 C0.8870137795275588,2.247663911109321 0.8937657480314958,2.246159974101447 0.9005177165354328,2.2446560370935726 C0.916076771653543,2.241187533156565 0.9293877952755902,2.242415879613258 0.9440452755905508,2.2486757221329428 C0.9856988188976374,2.2664552496919983 1.027352362204724,2.2842387142589273 1.0690059055118106,2.3020221788258564 C1.0969586614173226,2.3139513126841242 1.1142814960629916,2.3422859583534152 1.1121633858267712,2.3726048559912107 C1.1086712598425192,2.4225969819754627 1.1051791338582675,2.4725891079597146 1.1016870078740153,2.5225812339439666 C1.0996633858267715,2.5515772969360926 1.0802499999999997,2.576443438668376 1.0526161417322832,2.58544737567625 C0.9538681102362201,2.6176127300069587 0.8551161417322832,2.6497820213455414 0.7563681102362201,2.68194737567625 C0.7366830708661414,2.688360761503022 0.721820866141732,2.668242651266801 0.7183720472440942,2.651463123707746 C0.7103602362204722,2.612494619770738 0.7023484251968501,2.5735261158337304 0.694340551181102,2.5345576118967226" style="stroke:#000000;stroke-width:0.003543307086614173;"/>
        <!-- Spline -->
        <path d="M2.924179133858267,1.7368017063849115 C2.901080708661417,1.7579040685896359 2.866931102362204,1.7614946197707382 2.8399507874015746,1.745659974101447 C2.7739980314960624,1.706955249691998 2.7080452755905506,1.6682505252825492 2.642092519685039,1.6295458008731005 C2.6311870078740154,1.623144226069951 2.62728937007874,1.6158725725266436 2.628001968503937,1.6032505252825493 C2.628049212598425,1.6023922575660139 2.628096456692913,1.6015339898494785 2.628143700787401,1.600675722132943 C2.6289429133858264,1.58646706071562 2.6330177165354325,1.5748646985108956 2.641281496062992,1.5632741473297933 C2.6599783464566924,1.5370497378809744 2.6786712598425195,1.5108213914242816 2.69736811023622,1.4845969819754625 C2.707982283464567,1.4697072181959352 2.720124015748031,1.4613922575660139 2.737840551181102,1.4568765095345177 C2.7909114173228344,1.4433489504793995 2.8439822834645665,1.4298253284321554 2.8970531496062986,1.4162977693770373 C2.9234665354330707,1.4095654859124704 2.9514074803149604,1.418474934731368 2.9690492125984247,1.4392465882746752 C2.995647637795275,1.4705654859124704 3.0222460629921257,1.5018804465423918 3.0488444881889762,1.533199344180187 C3.0602066929133853,1.5465772969360925 3.065316929133858,1.559943438668376 3.065785433070866,1.577490682762864 C3.06580905511811,1.578482808747116 3.065836614173228,1.579478871739242 3.0658602362204723,1.580474934731368 C3.066356299212598,1.5991402890620767 3.0609586614173225,1.6118410764636515 3.0471712598425196,1.624435564652628 C3.0061751968503936,1.6618922575660138 2.965175196850393,1.6993450134715256 2.924179133858267,1.7368017063849115" style="stroke:#000000;stroke-width:0.003543307086614173;"/>
        <!-- Spline -->
        <path d="M2.1459192913385823,2.8510103678022345 C2.1416555118110234,2.8794355646526277 2.1207499999999997,2.90252611583373 2.0928877952755904,2.9095812339439666 C2.051785433070866,2.919998556778612 2.0106791338582672,2.930411942605384 1.969572834645669,2.9408253284321555 C1.9325570866141728,2.950199344180187 1.8947263779527557,2.9287741473297935 1.8837303149606295,2.892211155203809 C1.865820866141732,2.832648163077825 1.8479114173228344,2.7730891079597146 1.8300019685039366,2.71352611583373 C1.818084645669291,2.6738961945738877 1.8422775590551177,2.632474934731368 1.8826476377952752,2.623384383550266 C1.9724429133858266,2.6031639111093208 2.0622381889763775,2.58294737567625 2.152025590551181,2.5627269032353053 C2.1699625984251965,2.558687533156565 2.1876279527559053,2.57302611583373 2.184820866141732,2.5917229662274313 C2.1718562992125983,2.6781521000856987 2.1588877952755903,2.7645812339439666 2.1459192913385823,2.8510103678022345" style="stroke:#000000;stroke-width:0.003543307086614173;"/>
        <!-- Spline -->
        <path d="M0.8789311023622044,2.212919816621132 C0.8550728346456689,2.218234777251053 0.8379114173228341,2.214191470164439 0.8189350393700785,2.1987780843376674 C0.7420295275590549,2.1363135174085333 0.6651279527559053,2.0738489504793995 0.5882224409448815,2.011380446542392 C0.5550570866141731,1.98444737567625 0.5738799212598422,1.9348253284321555 0.6129744094488188,1.9247465882746753 C0.7081318897637792,1.900211155203809 0.8032893700787398,1.875675722132943 0.8984468503937004,1.8511402890620767 C0.9316161417322832,1.8425891079597145 0.9632224409448815,1.870474934731368 0.9577224409448817,1.9045182418179822 C0.943108267716535,1.994955249691998 0.9284940944881888,2.085400131581762 0.9138838582677162,2.1758410764636515 C0.9109192913385824,2.194187533156565 0.8970728346456689,2.2088765095345178 0.8789311023622044,2.212919816621132" style="stroke:#000000;stroke-width:0.003543307086614173;"/>
        <!-- Spline -->
        <path d="M1.475143700787401,2.8813489504793997 C1.4685019685039367,2.920282021345541 1.4315019685039367,2.94640800559751 1.392592519685039,2.9396442260699507 C1.3530255905511808,2.9327623363061712 1.3134625984251964,2.9258804465423918 1.2738956692913384,2.9190024937864862 C1.2401909448818893,2.913140289062077 1.2153917322834642,2.8841757221329427 1.2147893700787398,2.8499749347313683 C1.2141594488188971,2.814439501660502 1.213533464566929,2.77890800559751 1.2129074803149602,2.7433765095345177 C1.2122775590551178,2.707703281188061 1.238096456692913,2.6770497378809743 1.2733562992125982,2.6716087929990846 C1.3220649606299208,2.6640930449675886 1.3707736220472437,2.6565733599282186 1.4194783464566927,2.6490576118967226 C1.4676122047244093,2.641628478038455 1.5088759842519681,2.6835497378809743 1.5006870078740153,2.7315576118967226 C1.4921712598425194,2.7814906827628643 1.4836555118110233,2.831419816621132 1.475143700787401,2.8813489504793997" style="stroke:#000000;stroke-width:0.003543307086614173;"/>
        <!-- Spline -->
        <path d="M1.6574114173228343,1.5787820213455412 C1.6269311023622044,1.5890418638652264 1.59334842519685,1.5776363520542027 1.5754192913385823,1.550935564652628 C1.5232499999999995,1.4732269032353051 1.471076771653543,1.3955221788258563 1.4189074803149602,1.3178135174085335 C1.4070374015748028,1.3001402890620768 1.412340551181102,1.2761402890620768 1.4305492125984247,1.2651087929990847 C1.4349350393700784,1.262451312684124 1.439320866141732,1.2597938323691635 1.4437066929133855,1.2571402890620766 C1.4643917322834643,1.2446087929990848 1.4818799212598424,1.2428371394557776 1.5046555118110234,1.25096706071562 C1.6014232283464565,1.2855064307943602 1.6981909448818895,1.3200458008731002 1.7949586614173225,1.3545851709518406 C1.8330137795275587,1.368167848117195 1.8522027559055114,1.4106127300069586 1.8372657480314958,1.4481521000856987 C1.830600393700787,1.4648961945738876 1.8239389763779523,1.4816402890620768 1.8172736220472436,1.498384383550266 C1.808580708661417,1.5202308402431792 1.796033464566929,1.5321166670148327 1.7737499999999997,1.5396206040227067 C1.7349704724409445,1.5526717851250689 1.6961909448818895,1.5657269032353052 1.6574114173228343,1.5787820213455412" style="stroke:#000000;stroke-width:0.003543307086614173;"/>
        <!-- Spline -->
        <path d="M2.408525590551181,1.3996245410305808 C2.373332677165354,1.3733056433927855 2.370076771653543,1.321730840243179 2.4016751968503933,1.291191470164439 C2.446316929133858,1.2480536748888484 2.4909547244094483,1.204919816621132 2.535592519685039,1.1617820213455414 C2.553324803149606,1.1446481630778247 2.582663385826771,1.1522111552038092 2.5905413385826765,1.1754198166211318 C2.617104330708661,1.2536639111093208 2.6436673228346455,1.331904068589636 2.6702263779527557,1.4101442260699508 C2.678643700787401,1.434939501660502 2.6759625984251967,1.453171785125069 2.660765748031496,1.4744906827628643 C2.654600393700787,1.4831402890620766 2.6484350393700784,1.4917898953612894 2.64226968503937,1.500435564652628 C2.6233917322834643,1.526915879613258 2.5864232283464563,1.532679659140817 2.5603838582677163,1.5132032811880611 C2.5097618110236217,1.4753450134715256 2.459143700787401,1.4374867457549902 2.408525590551181,1.3996245410305808" style="stroke:#000000;stroke-width:0.003543307086614173;"/>
        <!-- Spline -->
        <path d="M2.376080708661417,2.1698489504793996 C2.348777559055118,2.1576166670148327 2.3320059055118105,2.129652100085699 2.334076771653543,2.0998056433927856 C2.3392027559055113,2.0258371394557777 2.34432874015748,1.9518725725266437 2.3494547244094486,1.87790800559751 C2.3514507874015744,1.8491048559912107 2.3719311023622045,1.824939501660502 2.4000137795275585,1.8182505252825492 C2.401061023622047,1.8180024937864863 2.402104330708661,1.8177505252825492 2.4031515748031493,1.8175024937864863 C2.4307578740157476,1.8109276906368799 2.4596397637795273,1.8213410764636515 2.4766988188976375,1.8440221788258564 C2.526096456692913,1.909695407172313 2.575494094488189,1.9753686355187696 2.624891732283464,2.0410418638652263 C2.6412499999999994,2.0627898953612895 2.64380905511811,2.091951312684124 2.6314901574803145,2.116219029219557 C2.618576771653543,2.141656037093573 2.605667322834645,2.1670930449675887 2.5927539370078736,2.1925300528416045 C2.5755255905511807,2.226463123707746 2.5346988188976374,2.2409040685896358 2.4999704724409444,2.2253489504793995 C2.4586751968503933,2.2068489504793996 2.417375984251968,2.1883489504793996 2.376080708661417,2.1698489504793996" style="stroke:#000000;stroke-width:0.003543307086614173;"/>
        <!-- Spline -->
        <path d="M1.9782263779527556,0.8175772969360926 C1.9400295275590547,0.8631087929990846 1.901832677165354,0.9086402890620768 1.8636397637795272,0.9541678481171949 C1.8467066929133855,0.9743528874872736 1.8296515748031492,0.9815064307943604 1.8033877952755901,0.979439501660502 C1.7533956692913382,0.9755064307943604 1.7034114173228343,0.9715772969360925 1.6534192913385823,0.9676442260699509 C1.6255216535433068,0.96544737567625 1.6014822834645666,0.9471442260699507 1.5919429133858265,0.9208332024479036 C1.5862539370078736,0.9051324150463287 1.5805649606299208,0.889435564652628 1.574872047244094,0.8737387142589272 C1.565592519685039,0.8481363520542027 1.5716988188976375,0.8194828087471162 1.5906043307086613,0.7998883205581397 C1.6252775590551178,0.7639552496919981 1.6599507874015744,0.7280221788258563 1.6946240157480312,0.6920891079597147 C1.7155216535433069,0.670431627644754 1.7477657480314956,0.6642190292195573 1.7752145669291335,0.6765576118967227 C1.8386515748031493,0.7050772969360923 1.902088582677165,0.7335969819754624 1.9655255905511808,0.7621166670148327 C1.9871003937007872,0.7718174544164076 1.9934311023622044,0.7994513126841241 1.9782263779527556,0.8175772969360926" style="stroke:#000000;stroke-width:0.003543307086614173;"/>
        <!-- Spline -->
        <path d="M2.873683070866141,0.9886954071723129 C2.787757874015748,1.0306363520542028 2.701836614173228,1.0725772969360925 2.615911417322834,1.1145143048101083 C2.6022263779527557,1.121195407172313 2.5900098425196845,1.1224906827628642 2.5752263779527556,1.1188213914242815 C2.5604665354330707,1.115156037093573 2.550312992125984,1.1083056433927854 2.541391732283464,1.0959828087471162 C2.5056751968503934,1.0466481630778248 2.4699547244094484,0.9973135174085335 2.434238188976378,0.9479788717392421 C2.4160334645669286,0.9228332024479036 2.4161751968503933,0.8887977693770375 2.4345964566929132,0.8638095804006594 C2.4680059055118106,0.8184867457549903 2.5014153543307085,0.7731639111093209 2.534824803149606,0.7278371394557777 C2.5499429133858262,0.7073292654400296 2.565785433070866,0.6998765095345179 2.5912224409448816,0.7013135174085336 C2.595793307086614,0.7015733599282183 2.6003641732283462,0.7018332024479037 2.6049350393700785,0.7020891079597147 C2.6224153543307085,0.7030772969360926 2.635604330708661,0.7085694229203443 2.648624015748031,0.720278084337667 C2.7263799212598423,0.7902269032353051 2.8041358267716534,0.860171785125069 2.8818917322834645,0.9301206040227066 C2.9006948818897635,0.9470339898494784 2.8964114173228346,0.9776009189833368 2.873683070866141,0.9886954071723129" style="stroke:#000000;stroke-width:0.003543307086614173;"/>
        <!-- Spline -->
        <path d="M3.3828602362204725,1.429443438668376 C3.404013779527559,1.496699344180187 3.4251633858267714,1.5639552496919982 3.446316929133858,1.631211155203809 C3.4539311023622044,1.6554276906368801 3.448104330708661,1.6818686355187698 3.4310137795275586,1.7006402890620769 C3.417336614173228,1.715667848117195 3.4036555118110234,1.730695407172313 3.3899744094488184,1.7457229662274312 C3.3649035433070864,1.7732623363061712 3.32286811023622,1.7768843835502657 3.2934547244094485,1.7540379268573525 C3.236541338582677,1.7098292654400296 3.1796279527559053,1.6656245410305808 3.1227185039370076,1.6214158796132578 C3.0972106299212596,1.6016009189833367 3.092068897637795,1.5608332024479035 3.12138779527559,1.542226903235305 C3.1908326771653543,1.4981639111093208 3.260277559055118,1.4540930449675886 3.329722440944882,1.4100261158337304 C3.3495098425196845,1.39746706071562 3.37582874015748,1.4070851709518406 3.3828602362204725,1.429443438668376" style="stroke:#000000;stroke-width:0.003543307086614173;"/>
        <!-- Spline -->
        <path d="M2.8531122047244093,3.0813528874872738 C2.854505905511811,3.0905418638652264 2.8533208661417317,3.0983135174085334 2.8492460629921257,3.1066639111093206" style="stroke:#000000;stroke-width:0.003543307086614173;"/>
        <!-- Spline -->
        <path d="M2.8492460629921257,3.1066639111093206 C2.84732874015748,3.1105851709518406 2.8449704724409446,3.1118371394557776 2.8406476377952754,3.111230840243179" style="stroke:#000000;stroke-width:0.003543307086614173;"/>
        <!-- Spline -->
        <path d="M2.5560177165354325,2.789734777251053 C2.574564960629921,2.7597583992982972 2.6122224409448815,2.7478213914242815 2.644651574803149,2.761636352054203" style="stroke:#000000;stroke-width:0.003543307086614173;"/>
        <!-- Spline -->
        <path d="M2.644651574803149,2.761636352054203 C2.644651574803149,2.761636352054203 2.7789783464566926,2.8188686355187698 2.7789783464566926,2.8188686355187698" style="stroke:#000000;stroke-width:0.003543307086614173;"/>
        <!-- Spline -->
        <path d="M2.7789783464566926,2.8188686355187698 C2.8017224409448813,2.8285615489045965 2.8178287401574797,2.8493371394557774 2.821545275590551,2.8737780843376672" style="stroke:#000000;stroke-width:0.003543307086614173;"/>
        <!-- Spline -->
        <path d="M2.821545275590551,2.8737780843376672 C2.821545275590551,2.8737780843376672 2.8531122047244093,3.0813528874872738 2.8531122047244093,3.0813528874872738" style="stroke:#000000;stroke-width:0.003543307086614173;"/>
        <!-- Spline -->
        <path d="M2.5560177165354325,2.789734777251053 C2.5122342519685037,2.86050643079436 2.4684468503937005,2.9312820213455413 2.424663385826771,3.0020536748888484 C2.411116141732283,3.02394737567625 2.424521653543307,3.0525458008731006 2.4500137795275587,3.0561402890620766 C2.5802263779527554,3.074502493786486 2.7104350393700782,3.092864698510896 2.8406476377952754,3.111230840243179" style="stroke:#000000;stroke-width:0.003543307086614173;"/>
    </g>
</svg>
